<mxfile host="Electron" modified="2023-12-08T00:11:05.710Z" agent="Mozilla/5.0 (Windows NT 10.0; Win64; x64) AppleWebKit/537.36 (KHTML, like Gecko) draw.io/21.4.0 Chrome/112.0.5615.204 Electron/24.5.1 Safari/537.36" etag="-RN2CPWnMLO2hJK9VTKf" version="21.4.0" type="device">
  <diagram name="Page-1" id="2be8HIee5ubXqJjlf155">
    <mxGraphModel dx="1434" dy="884" grid="1" gridSize="10" guides="1" tooltips="1" connect="1" arrows="1" fold="1" page="1" pageScale="1" pageWidth="1019" pageHeight="1320" math="0" shadow="0">
      <root>
        <mxCell id="0" />
        <mxCell id="1" parent="0" />
        <mxCell id="wcQNVHnrwi7tHlKUbwcQ-1" value="" style="rounded=0;whiteSpace=wrap;html=1;" vertex="1" parent="1">
          <mxGeometry x="380" y="230" width="540" height="370" as="geometry" />
        </mxCell>
        <mxCell id="wcQNVHnrwi7tHlKUbwcQ-2" value="" style="ellipse;whiteSpace=wrap;html=1;aspect=fixed;" vertex="1" parent="1">
          <mxGeometry x="450" y="290" width="250" height="250" as="geometry" />
        </mxCell>
        <mxCell id="wcQNVHnrwi7tHlKUbwcQ-5" value="" style="ellipse;whiteSpace=wrap;html=1;aspect=fixed;fillColor=none;" vertex="1" parent="1">
          <mxGeometry x="590" y="290" width="250" height="250" as="geometry" />
        </mxCell>
        <mxCell id="wcQNVHnrwi7tHlKUbwcQ-6" value="ALL EMAILS" style="text;html=1;strokeColor=none;fillColor=none;align=center;verticalAlign=middle;whiteSpace=wrap;rounded=0;" vertex="1" parent="1">
          <mxGeometry x="790" y="240" width="110" height="30" as="geometry" />
        </mxCell>
        <mxCell id="wcQNVHnrwi7tHlKUbwcQ-7" value="SPAM" style="text;html=1;strokeColor=none;fillColor=none;align=center;verticalAlign=middle;whiteSpace=wrap;rounded=0;" vertex="1" parent="1">
          <mxGeometry x="680" y="300" width="110" height="30" as="geometry" />
        </mxCell>
        <mxCell id="wcQNVHnrwi7tHlKUbwcQ-8" value="CONTAINS &lt;br&gt;&#39;ALERT&#39;" style="text;html=1;strokeColor=none;fillColor=none;align=center;verticalAlign=middle;whiteSpace=wrap;rounded=0;" vertex="1" parent="1">
          <mxGeometry x="500" y="310" width="110" height="30" as="geometry" />
        </mxCell>
        <mxCell id="wcQNVHnrwi7tHlKUbwcQ-12" value="" style="endArrow=none;html=1;rounded=0;" edge="1" parent="1">
          <mxGeometry width="50" height="50" relative="1" as="geometry">
            <mxPoint x="410" y="299" as="sourcePoint" />
            <mxPoint x="460" y="299" as="targetPoint" />
          </mxGeometry>
        </mxCell>
        <mxCell id="wcQNVHnrwi7tHlKUbwcQ-13" value="%" style="text;html=1;strokeColor=none;fillColor=none;align=center;verticalAlign=middle;whiteSpace=wrap;rounded=0;" vertex="1" parent="1">
          <mxGeometry x="440" y="269" width="60" height="30" as="geometry" />
        </mxCell>
        <mxCell id="wcQNVHnrwi7tHlKUbwcQ-14" value="" style="endArrow=none;html=1;rounded=0;" edge="1" parent="1">
          <mxGeometry width="50" height="50" relative="1" as="geometry">
            <mxPoint x="720" y="429.5" as="sourcePoint" />
            <mxPoint x="770" y="429.5" as="targetPoint" />
          </mxGeometry>
        </mxCell>
        <mxCell id="wcQNVHnrwi7tHlKUbwcQ-15" value="%" style="text;html=1;strokeColor=none;fillColor=none;align=center;verticalAlign=middle;whiteSpace=wrap;rounded=0;" vertex="1" parent="1">
          <mxGeometry x="750" y="399.5" width="60" height="30" as="geometry" />
        </mxCell>
        <mxCell id="wcQNVHnrwi7tHlKUbwcQ-16" value="" style="endArrow=none;html=1;rounded=0;" edge="1" parent="1">
          <mxGeometry width="50" height="50" relative="1" as="geometry">
            <mxPoint x="600" y="429.5" as="sourcePoint" />
            <mxPoint x="650" y="429.5" as="targetPoint" />
          </mxGeometry>
        </mxCell>
        <mxCell id="wcQNVHnrwi7tHlKUbwcQ-17" value="%" style="text;html=1;strokeColor=none;fillColor=none;align=center;verticalAlign=middle;whiteSpace=wrap;rounded=0;" vertex="1" parent="1">
          <mxGeometry x="630" y="399.5" width="60" height="30" as="geometry" />
        </mxCell>
        <mxCell id="wcQNVHnrwi7tHlKUbwcQ-18" value="" style="endArrow=none;html=1;rounded=0;" edge="1" parent="1">
          <mxGeometry width="50" height="50" relative="1" as="geometry">
            <mxPoint x="470" y="429.5" as="sourcePoint" />
            <mxPoint x="520" y="429.5" as="targetPoint" />
          </mxGeometry>
        </mxCell>
        <mxCell id="wcQNVHnrwi7tHlKUbwcQ-19" value="%" style="text;html=1;strokeColor=none;fillColor=none;align=center;verticalAlign=middle;whiteSpace=wrap;rounded=0;" vertex="1" parent="1">
          <mxGeometry x="500" y="399.5" width="60" height="30" as="geometry" />
        </mxCell>
      </root>
    </mxGraphModel>
  </diagram>
</mxfile>
